<svg xmlns="http://www.w3.org/2000/svg" viewBox="0 0 512 512"><title>Artboard 116</title><g id="Plastic_Bottle_Recycle" data-name="Plastic Bottle Recycle"><path d="M85.33333,277.33333A21.33438,21.33438,0,0,1,64,256C64,150.13542,150.13542,64,256,64A191.2715,191.2715,0,0,1,434.03125,183.98958a21.332,21.332,0,0,1-39.54167,16.02084A148.78,148.78,0,0,0,256,106.66667c-82.34375,0-149.33333,66.98958-149.33333,149.33333A21.33439,21.33439,0,0,1,85.33333,277.33333Z" style="fill:#30bf00"/><path d="M362.66667,123.21615a169.25666,169.25666,0,0,0-213.33334-.08334v26.20052h2.72006a148.67692,148.67692,0,0,1,66.45833-37.92187l.0026-.0013q1.06836-.2754,2.14063-.53646l.0039-.0013c.03776-.00912.06771-.01563.10547-.02474l.00261-.00131.10416-.02474h.00261c.03385-.00911.07291-.01822.10547-.026h.0026c.03385-.00781.06771-.01692.10026-.02474l.01432-.0026.09636-.02344.00781-.0013c.03255-.00911.069-.01693.10156-.02474l.00521-.0013.10287-.02474.0039-.0013c.03255-.00782.069-.01563.10156-.02344l.01172-.00261c.42709-.10156.85287-.19921,1.28125-.29687l.00912-.0026c.03646-.00782.0638-.01433.10156-.02214l.00521-.0013.09766-.02214.01432-.0039c.03255-.00651.0625-.01433.09635-.02084l.01042-.0026c.03385-.00781.0612-.01432.09375-.02083l.01953-.00521c.03255-.00651.05469-.01172.08854-.01953l.01953-.00391.08985-.02083.01953-.00391c.02864-.00651.0625-.013.08984-.01953l.01953-.00391c.02735-.00651.0599-.01432.08855-.01953l.02343-.00651c.03386-.00651.05469-.01172.08724-.01823l.01823-.0039c.02734-.00652.0638-.01433.09245-.02084l.01562-.0026.09506-.02214.00911-.0013c.03255-.00651.069-.01562.10156-.02213h.00131c.43489-.09506.862-.1862,1.29817-.276l.00782-.0026c.03255-.00651.0677-.013.10026-.02083l.00911-.00131c.03385-.00651.06641-.01432.099-.02083l.01041-.0026c.02865-.00521.069-.013.09636-.01953l.01562-.00261c.03256-.00651.0625-.013.09636-.01953l.01172-.0026c.03255-.00652.0664-.01433.099-.02084l.00911-.0013c.02865-.00651.069-.01432.09766-.01953l.01562-.00391.09375-.01823.01693-.0039c.03385-.00651.05729-.01172.08984-.01823a.13084.13084,0,0,1,.02214-.00391c.03255-.00781.05859-.013.09114-.01953l.01433-.0026c.02864-.00521.0651-.013.09375-.01823a.103.103,0,0,1,.01953-.00391c.03255-.00651.05859-.01172.09245-.01953l.013-.0026c.03385-.00652.0638-.01172.09635-.01823l.013-.00261c.07031-.01432.13672-.02734.20833-.04166h.00261c.25651-.05079.50521-.099.763-.14844.02865-.00651.06771-.013.095-.01823l.01823-.00391.09115-.01692.01953-.00391c.02864-.00521.05338-.01042.082-.01563l.03255-.00651.07943-.01432.02995-.00651.07942-.01432a.28633.28633,0,0,1,.03256-.00651c.02474-.00391.05729-.01042.082-.01563a.20088.20088,0,0,0,.02734-.00521l.07943-.01432.03515-.00651.07943-.01432a.18351.18351,0,0,1,.026-.00521c.02995-.00521.056-.01042.08464-.01563l.02995-.0052c.02474-.00521.05468-.01042.07812-.01433l.03516-.00651c.02474-.00521.05208-.01041.07552-.01432l.03776-.00651c.02344-.00521.05208-.01042.07682-.01432l.02735-.00521.08463-.01563.026-.0039.08724-.01563.01563-.0039.095-.01693.013-.00261c.28776-.05078.56771-.10156.85547-.151l.01693-.0026c.03255-.00651.0625-.01042.095-.01693l.01432-.0026c.02865-.00521.0625-.01042.09115-.01563l.02213-.0039c.02865-.00521.05729-.00912.08724-.01433l.02474-.00521c.02865-.0039.04818-.00781.07682-.013.013-.0013.026-.0039.03907-.00651.02474-.0039.05078-.00781.07421-.013a.34852.34852,0,0,0,.03646-.00521c.02344-.0039.05078-.00911.07552-.013l.03646-.00651c.02344-.0039.05209-.00911.07683-.013l.03515-.00521c.02474-.0052.04948-.00911.07292-.013l.04036-.00651c.02865-.00521.04818-.00781.07683-.013a.23877.23877,0,0,0,.02994-.00521l.082-.013.02865-.00521c.02865-.0052.056-.00911.08594-.01432l.02474-.0039c.02864-.00521.05469-.00912.08333-.013l.03255-.00651c.02865-.0039.05339-.00781.082-.013l.02344-.0039c.02865-.00521.0586-.00912.08724-.01433.00391,0,.02084-.0039.026-.0039.02865-.00521.0599-.01042.08854-.01433l.00912-.0013c.03385-.00651.06771-.01172.10156-.01692l.01432-.00261c.21615-.03515.4336-.069.64974-.10286h.00131l.11067-.01823c.02995-.00391.06511-.00912.09375-.01433l.02084-.0026c.02995-.00521.0651-.01042.09375-.01562l.01692-.00261c.02865-.0039.0599-.00911.08855-.013l.026-.00391c.02864-.0039.05729-.00911.08593-.013l.026-.0039c.02864-.00521.05078-.00782.08073-.013.013-.00131.02213-.00261.03645-.00521l.07292-.01172c.01432-.0013.02474-.0026.03906-.00521.02474-.00391.04688-.00781.07162-.01042.01432-.0026.02995-.0052.043-.00651l.07161-.01172.03906-.0052c.02474-.00391.04818-.00782.07162-.01042l.04557-.00781c.02474-.00261.04167-.00521.06641-.00912.01432-.0026.03255-.00521.04557-.00651.02474-.0039.04427-.00651.06771-.01041.01432-.00261.03125-.00521.04557-.00651.02344-.00391.04427-.00652.069-.01042l.043-.00651c.01953-.00261.04948-.00651.06771-.01042l.04948-.00651.0651-.00911.04688-.00651.0651-.01042.04818-.00651c.02474-.00391.04167-.00651.06641-.00912.01432-.0026.02994-.0052.04427-.00651.02343-.0039.04427-.00651.069-.01041.013-.0013.02864-.00391.043-.00651.02474-.00261.04688-.00651.07162-.00912l.02214-.0039c.13541-.01954.27213-.03907.40885-.0573l.01562-.0026.08855-.01172.02474-.0039c.02994-.00391.05338-.00782.082-.01172l.03255-.00391c.02344-.00391.04818-.00651.07161-.01042l.043-.0052c.02474-.00391.04558-.00651.069-.00912.01433-.0026.03125-.00521.04558-.00651l.0651-.00911c.01432-.00131.03516-.00521.04948-.00651l.0651-.00912c.013-.0013.03386-.00391.04818-.00651.02474-.0026.04036-.00521.0638-.00781.01433-.00261.03516-.00521.04948-.00651.02474-.00391.043-.00651.06771-.00912.013-.0026.03125-.00521.04427-.00651.02474-.0026.04427-.00521.069-.00911.01823-.00261.026-.00391.04427-.00521.01953-.0026.05078-.00781.07031-.01042l.04428-.00521c.02343-.0026.043-.0052.0677-.00911l.04558-.00521c.02474-.0039.04557-.00651.07031-.00911.01432-.00261.02864-.00391.04167-.00651.02474-.00261.04557-.00521.07031-.00912l.04557-.00521c.02344-.0026.04557-.00651.07031-.00911.013-.0013.02474-.00391.03907-.00521.02343-.0026.05078-.00651.07421-.00911l.03516-.00521c.02474-.00261.056-.00651.08073-.01042a.23635.23635,0,0,0,.03-.0039c.02864-.00261.05208-.00652.08073-.00912l.03515-.00521.082-.01041.013-.00131c.03515-.0039.0651-.00781.099-.01172l.01042-.0013c.13672-.01823.26042-.03255.39714-.04948l.04427-.00521c.02474-.0026.05859-.00781.08333-.01041a.19453.19453,0,0,1,.02734-.00261l.07943-.01041.03646-.00391c.02474-.0026.04818-.00651.07292-.00911.01432-.00131.02734-.00261.04166-.00521.01953-.0013.04427-.00521.0638-.00781.01823-.00131.03516-.00391.05469-.00521l.0599-.00782c.01953-.0026.03125-.0039.05078-.0052.02344-.00391.04427-.00521.06771-.00912l.04687-.00521.06771-.00781.04557-.00521c.02474-.0026.04167-.00521.06641-.00781l.04818-.00521.07161-.00781.03776-.00521c.03-.0026.04688-.00521.07552-.00781.01433-.00261.02735-.00391.04037-.00521l.07422-.00781a.37675.37675,0,0,1,.04036-.00521l.07031-.00781.04818-.00521c.02474-.00261.04036-.00521.0651-.00781l.04948-.00521.06511-.00781c.01823-.00131.03515-.00391.05469-.00521.01953-.00261.03776-.00521.05729-.00651.01953-.00261.04036-.00391.05859-.00651.01953-.00261.03776-.00391.05729-.00651.01823-.00131.03776-.00391.056-.00651.01953-.00131.04037-.00391.0599-.00651.01823-.00131.02995-.00261.04818-.00521l.0677-.00651.04688-.00521c.01953-.00261.04687-.00521.0664-.00781l.04948-.00521c.01954-.00131.04558-.00391.06641-.00651l.04687-.00521c.08334-.00912.17969-.01823.263-.02735l.02994-.0039c.02474-.0013.04818-.00391.07292-.00651.01432-.0013.02734-.00391.04167-.00521.02474-.0026.04948-.00521.07291-.00651l.04167-.00521.07552-.00781a.33648.33648,0,0,0,.03776-.00391c.02474-.0013.05208-.00521.07552-.00781l.04037-.00391c.01953-.0013.04817-.0039.06771-.00651l.04947-.00521c.01954-.0013.04428-.0039.06381-.00651l.05208-.0039.0612-.00651.05338-.00521c.01953-.00261.04037-.00391.0612-.00651.01823-.0013.03906-.00391.05729-.00521.01953-.0026.03255-.00391.05209-.00521s.04687-.00521.0651-.00651c.01953-.0013.03255-.0026.05208-.00521l.06381-.00521c.01953-.0026.03125-.0039.05078-.0052.01953-.00261.043-.00391.06119-.00651.01954-.00131.03777-.00391.0573-.00521.02343-.00261.03646-.00391.05989-.00521l.05339-.00521.0625-.00651.05469-.00521.05859-.00521c.02083-.0013.03776-.0026.05729-.0052.01823-.00131.03646-.00391.056-.00521s.04167-.00391.0612-.00521c.01823-.0026.03646-.00391.056-.00521.01953-.0026.03646-.00391.056-.00521l.0651-.00651.05208-.0039.0612-.00651.05469-.00391.05208-.00521.06511-.00521a.25391.25391,0,0,1,.03255-.0026c.08333-.00781.17708-.01563.26172-.02344l.04818-.00391c.01953-.0026.043-.0039.0625-.0052l.05208-.00521c.01953-.0013.03906-.00261.05859-.00521.02344-.0013.03646-.0026.0599-.00521l.05469-.00391c.01823-.0013.03906-.0039.05859-.0052l.0651-.00521.04948-.00391c.01953-.0026.04818-.0039.06771-.00651l.04688-.0039.06771-.00521.04947-.00391c.02474-.0026.04037-.00391.06511-.00521l.04818-.0039c.02474-.00261.04427-.00391.069-.00521l.04687-.00391c.02474-.0026.043-.0039.06771-.00521.01823-.0026.03-.0026.04818-.0039.01953-.00261.04557-.00391.0651-.00521.01823-.00261.03516-.00391.05469-.00521l.05989-.00391.05209-.0039c.02474-.00261.04166-.00391.0664-.00521l.04948-.00391c.02474-.0026.04037-.0039.06511-.0052l.04817-.00391c.02474-.00261.043-.00391.06771-.00521l.05209-.00391c.01953-.0013.043-.0026.0625-.0052l.05468-.00391.0612-.00391.05469-.0039c.02083-.00261.04036-.00391.0612-.00521l.05989-.00391.05469-.0039c.02344-.00261.04167-.00391.0651-.00521l.05209-.00391.0625-.0039.05208-.00391.10156-.00781h.01433l.09505-.00782c.02995-.0013.05859-.0039.08854-.0052l.04687-.00391.0573-.00391.06119-.0039c.01433-.00131.043-.00261.0586-.00391l.056-.00391.05859-.0039.0586-.00391.05989-.0039.05469-.00391.0612-.00391.056-.0039.06119-.00391.05469-.00391.0612-.0039c.01432,0,.04036-.00261.05469-.00261l.0625-.0039.05468-.00391.0586-.0039.05859-.00391c.01953,0,.03776-.0013.05729-.00261l.0612-.0039.05339-.00391.06119-.0039c.02084,0,.04037-.00131.0599-.00261l.05469-.0039c.02474-.00131.03515-.00131.05989-.00391.01954,0,.03907-.0013.0586-.0026l.05859-.00391c.01823-.0013.03906-.0026.05859-.0026l.056-.00391c.01954-.0013.03777-.00261.0573-.00261l.0638-.0039c.01823-.0013.02995-.00261.04818-.00261l.0651-.0039c.01953-.0013.03385-.00261.05339-.00261.02473-.0026.04036-.0026.0651-.0039.01432-.0013.03906-.00261.05338-.00261l.0599-.0039.0638-.00391c.01563,0,.04037-.0013.05469-.0026s.03646-.00131.05078-.00261c.07943-.0039.16146-.00911.24089-.013.01953-.0013.03776-.0013.056-.0026l.082-.00391a.26182.26182,0,0,1,.03125-.0013l.07031-.00391.04948-.0026c.02083-.0013.04167-.00261.0612-.00261l.05468-.0039c.01954,0,.03907-.0013.0586-.00261.01823,0,.04166-.0013.0612-.0026s.03776-.0013.05729-.0026.03776-.00131.056-.00261c.01953-.0013.043-.0026.0625-.0026.01823-.0013.03646-.00261.056-.00261l.06119-.0039c.013,0,.04037-.00131.05469-.00261.01953,0,.04037-.0013.0612-.0026.01823,0,.03776-.0013.05729-.00261.01953,0,.04167-.0013.0612-.0026l.05208-.0026c.01953,0,.04427-.00131.06511-.00261.01823-.0013.03515-.0013.05469-.0026.01953,0,.04036-.0013.05989-.00261.01953,0,.03776-.0013.056-.0026.02083,0,.04036-.0013.0599-.0026.01953,0,.04036-.00131.05989-.00261.01953,0,.03776-.0013.0586-.0013.01432-.0013.04166-.0026.056-.0026.01953-.00131.04036-.00131.05989-.00261s.04037-.0013.05859-.0026c.02084-.00131.03907-.00131.0599-.00261.01823,0,.03516-.0013.05469-.0013.01953-.0013.04167-.0026.0612-.0026.01953-.00131.03906-.00261.05859-.00261.01953-.0013.03906-.0013.0599-.0026.01822,0,.03125-.0013.05078-.0013.02474-.00131.04166-.00261.0664-.00261.01433-.0013.03646-.0013.05078-.0026.02474-.0013.04037-.0013.06641-.00261.01823,0,.04427-.0013.0638-.0026l.04948-.0013c.02865-.00131.0586-.00261.08724-.00261a.24106.24106,0,0,1,.03125-.0013l.11589-.00391c.01562-.0013.02995-.0013.04427-.0026.02474,0,.04948-.0013.07422-.0013l.043-.00261c.02343,0,.05208-.0013.07552-.0026.01432,0,.03255,0,.04687-.0013.02474,0,.04427-.0013.06771-.0013.02083-.00131.03776-.00131.05729-.00261.01953,0,.04167-.0013.0612-.0013.01953-.0013.03906-.0013.05859-.0026.01953,0,.03907-.00131.0586-.00131.01953-.0013.03515-.0013.05468-.0013.01954-.0013.04427-.0026.06381-.0026s.03515-.0013.056-.0013c.01823-.00131.04036-.00131.05989-.00261.01953,0,.04037-.0013.0599-.0013s.03646-.0013.056-.0013l.0638-.00261c.01432,0,.03776,0,.05208-.0013.02084,0,.04167-.0013.0625-.0013.01823,0,.03907-.0013.0586-.0013.01953-.00131.04036-.00131.05989-.00261.01953,0,.03516,0,.05469-.0013.01953,0,.043-.0013.0638-.0013.01823,0,.03386-.0013.05339-.0013s.04427-.00131.0638-.00131c.01953-.0013.03646-.0013.056-.0013.01562-.0013.04167-.0013.05729-.0013.02344-.0013.04036-.0013.0638-.0026.01563,0,.03906,0,.05469-.00131.01953,0,.04427,0,.0638-.0013.01433,0,.03776,0,.05209-.0013.01953,0,.04427,0,.0625-.0013.02083,0,.03906,0,.05859-.00131.01953,0,.04036,0,.05989-.0013.02084,0,.03516,0,.05469-.0013.02344,0,.04167,0,.06641-.0013.01953,0,.03385,0,.05338-.0013h.0599c.01953-.00131.03776-.00131.05729-.00131.01953-.0013.04427-.0013.0638-.0013.01433-.0013.03907-.0013.05469-.0013.02344,0,.05729-.0013.08073-.0013l.03516-.0013c.03776,0,.07942-.00131.11849-.00131h.00651c.03776-.0013.07422-.0013.112-.0026h.02864c.02865-.0013.0586-.0013.08724-.0013.01563-.0013.03125-.0013.04557-.0013.02474,0,.05079-.00131.07422-.00131h.04558c.02343-.0013.04687-.0013.07031-.0013.02083,0,.03255,0,.05208-.0013h.06771c.02083-.0013.03385-.0013.05339-.0013s.04166,0,.06119-.0013h.0599c.01953,0,.04036-.00131.0599-.00131h.056c.01954,0,.043-.0013.0625-.0013h.05469c.02474,0,.04037-.0013.0638-.0013h.056c.01954,0,.04037,0,.0599-.0013h.11979c.01953-.0013.03646-.0013.056-.0013h.0612c.01953,0,.03646,0,.05729-.00131h.11849c.02344,0,.03646,0,.0612-.0013h.17318c.01822,0,.04947-.0013.069-.0013h.23828c.01562,0,.03255-.0013.04687-.0013h.94531a.23082.23082,0,0,1,.03.0013h.11068c.07422,0,.14844,0,.224.0013h.14192c.03386,0,.07422.0013.10808.0013h.10937a.22915.22915,0,0,0,.02995.00131h.11068c.07552.0013.14713.0013.22135.0026h.02865c.02995,0,.05338.0013.08333.0013h.03125c.03386,0,.07422.0013.10807.0013h.00912c.03,0,.0664.00131.09635.00131h.03906c.02735.0013.05079.0013.07813.0013a.24115.24115,0,0,1,.02995.0013c.03385,0,.07552,0,.10937.0013h.00391c.03385,0,.07161.0013.10547.0013h.02864c.03.00131.05339.00131.08334.00131l.03125.0013c.07161.0013.14583.0013.21744.0026a.22117.22117,0,0,0,.02995.0013c.026,0,.05729.00131.08334.00131h.02864c.07162.0013.14714.0026.21745.0052h.03255c.026,0,.05469.00131.08073.00131l.03125.0013.21485.0039a.31519.31519,0,0,0,.03515.00131c.026,0,.056.0013.082.0013a.16633.16633,0,0,0,.026.0013c.03386,0,.07683.0013.11068.00261h.00521c.03385,0,.06771.0013.10156.0026h.03516c.026.0013.04948.0013.07552.0026a.3515.3515,0,0,1,.03646.00131c.03385,0,.07161.0013.10547.0026h.01432c.02995.0013.0625.0013.09245.0026a.33925.33925,0,0,1,.03646.00131c.026,0,.04947.0013.07552.0013a.30617.30617,0,0,0,.03385.0013c.03385.0013.07422.0013.10807.0026h.00912l.09765.00391h.03386c.02734.0013.05208.00261.07812.00261l.03386.0013c.03255.0013.07291.0026.10547.0026l.01692.0013c.02995,0,.0599.00131.08985.00261l.03776.0013c.026.0013.05208.0013.07812.0026a.23925.23925,0,0,1,.02995.00131c.07031.0013.14714.0039.21745.00651l.02864.0013c.02735.0013.056.0013.082.0026l.03255.0013.10677.00391h.00911l.09766.00391a.29461.29461,0,0,1,.03385.0013c.026,0,.056.0013.082.0026a.20048.20048,0,0,1,.02735.00131l.10807.0039h.01823l.08854.00391.03516.0013c.026.0013.05208.0026.07812.0026a.27066.27066,0,0,0,.03256.00131c.03385.0013.07291.0039.10677.0052h.01692l.08855.00391.03645.0013.07943.00391a.23089.23089,0,0,1,.02995.0013l.10677.00391.01953.0013.08594.00391.03906.0013c.02344.0013.04557.0013.06771.0026.01432.0013.02995.0013.04427.00261l.10026.0039a.20193.20193,0,0,0,.02865.0013l.07682.00391.04167.0013.07161.00391c.01562,0,.02214.0013.03646.0013.03385.0013.069.00391.10286.00521l.02995.0013.07422.00391c.01562,0,.02995.0013.04557.0013l.0638.00391c.01433,0,.02865.0013.04428.0013.03385.0026.0651.0039.099.00521.01042.0013.026.0013.03646.0026.02214.0013.04427.0013.06641.0026l.04948.00261.0638.00391c.01562,0,.026.0013.04036.0013.03386.0026.069.0039.10157.00521l.03255.0026c.026.0013.04557.0013.07161.0026.01563.00131.03125.00261.04558.00261l.0664.0039.04037.00261c.03385.0013.06771.0039.10156.00521l.03125.0013.07422.00391c.01041.0013.03125.0026.04036.0026l.07683.00391.03125.0026c.03645.0013.0677.00391.10546.00521l.02344.0013c.026.0026.056.00391.082.00521a.32049.32049,0,0,1,.03646.0026l.07813.00391.03125.0026c.03646.00131.0677.00391.10416.00521a.19269.19269,0,0,0,.02735.0013c.026.00261.05208.00391.07812.00521.01042.0013.03125.00261.04167.00261l.07161.0039.03516.00261c.03646.0026.06641.0039.10286.00651l.02865.0013c.026.0013.05208.00391.07812.00521a.36863.36863,0,0,1,.03777.0026l.07291.00391.03646.0026c.03776.00261.06641.00391.10286.00651l.02865.00261.07682.0039a.3922.3922,0,0,0,.04037.00261c.026.0026.04948.0039.07552.00521l.03125.0026c.03646.0026.06771.00391.10417.00651l.02474.0013c.026.00261.056.00391.082.00521a.34351.34351,0,0,0,.03645.0026c.026.00261.05209.00391.07813.00521l.02995.00261c.03776.0026.06771.00521.10547.00781l.026.0013c.026.0013.05208.00391.07812.00521.01042.0013.02995.0026.04037.0026.026.00261.05338.00391.07942.00651l.026.00131.10547.00781.026.0013c.026.00261.05468.00391.08073.00651a.34091.34091,0,0,1,.03645.00261l.07553.0052.03385.00261c.03646.0026.0651.0039.10286.00651a.21424.21424,0,0,0,.03.0026c.026.00261.04818.00391.07422.00521l.04037.00391c.026.0013.04947.0039.07552.00521l.03125.0026c.03776.0026.0664.00521.10286.00781l.03255.00261.07422.00521c.01042.0013.02865.0026.03776.0026.02214.0026.05209.00391.07422.00651l.03516.0026.10286.00782.02735.0026c.026.0013.05078.00391.07552.00521.01041.0013.03385.0026.043.0039.026.00131.04687.00391.07291.00521l.03255.00261c.03646.0039.06641.00521.10287.00911l.03.00261.07552.0052.04036.00391c.02214.0013.04557.00391.06771.00521l.04036.00391.099.00781.03776.0026c.02214.00261.04427.00391.06641.00651.01562.0013.02995.0013.04427.00261.026.0026.04948.0052.07552.00651a.21331.21331,0,0,0,.02865.0026c.03646.00391.0664.00521.10286.00912l.03386.0026c.02213.0026.05078.00391.07291.00651l.03907.00391c.02213.0013.04817.0039.07031.00521l.03906.0039.09766.00781.04036.00391c.02214.0026.04037.00391.0625.00521.01953.0026.02865.0026.04818.00521.02213.0013.04557.0039.06771.0052l.03515.00391c.03386.00261.069.00521.10157.00912l.03385.0026c.02213.0026.04948.00521.07161.00651l.04167.00391c.02214.0026.04818.0039.07031.00651l.03646.0026c.03255.00391.06771.00651.10026.01042l.03255.0026c.02214.00261.05079.00521.07292.00651l.03906.00391.07943.00781a.19291.19291,0,0,1,.02734.00261c.03256.0026.069.00651.10157.00911l.03515.00391c.026.0026.04688.0039.07162.00651l.03776.0039.07942.00782a.19465.19465,0,0,1,.02735.0026c.03385.0026.07031.00651.10417.00911l.03385.00391c.02213.0026.04427.00391.06641.00651l.04557.00391c.026.0026.04557.00521.07031.00781.01042,0,.02474.0026.03516.0026.03255.00391.0651.00651.09765.01042l.043.00391c.01823.0026.043.0039.0612.00651l.04688.0039.05989.00651.0638.00651.07683.00782.04817.0052c.01823.00131.03646.00391.05469.00521l.04948.00521.06641.00651c.01562.00261.02343.00261.03776.00391.03255.0039.0638.00781.09765.01042l.043.0052c.01823.00131.04427.00391.0625.00651l.043.00391c.026.0026.04427.00521.07031.00781l.03646.00391c.03255.0039.06641.00651.099.01042l.03646.0039.0664.00781.04558.00391.069.00781.03515.00391c.03256.00391.06641.00781.099.01042.01563.0026.02214.0026.03646.0039.026.00391.04557.00521.07031.00781l.03906.00521.07422.00782.03256.0039c.03385.00391.0677.00651.10026.01042a.34677.34677,0,0,0,.03645.0039l.06641.00782.043.00521.07552.00781.02995.0039.099.01172.04166.00391c.01823.0026.04427.00521.0625.00781.01433.0013.02865.00261.043.00521l.07162.00781.03645.00391c.03386.0039.06381.00781.09636.01172l.04036.0039c.01823.00261.04427.00521.0625.00782l.04427.0052c.02995.00391.05079.00651.08073.00912l.02214.0026c.03255.00391.069.00912.10156.013l.03906.00391.06511.00781c.01432.00261.02864.00391.043.00521.01823.00261.04427.00521.0625.00781.01953.00261.04948.00651.069.00782l.07031.00911c.01562.0013.02734.0026.043.00521l.0625.00781c.01562.0013.02734.00261.043.00521.02864.0026.04817.00521.07682.00911l.02865.00391.099.01172c.01433.0013.02474.0026.03907.00521l.0638.00781c.01432.0013.02865.00391.04427.00521.02083.0026.04688.00651.069.00911.01432.00131.03646.00391.05078.00651.02474.00261.05729.00651.082.01042.01433.0013.02865.0026.043.00521.01823.0026.03776.00391.056.00651.01953.0026.03386.00521.05339.00651l.05468.00781c.02344.00261.04558.00521.07032.00912.02474.0026.04687.00521.07161.00911l.04557.00521.0573.00781c.01432.0013.03255.00391.04817.00651l.0586.00781c.02474.00261.04687.00521.07161.00912l.07031.00911c.01433.00131.02474.00261.03907.00521l.0638.00781c.01562.00261.03125.00391.04557.00652l.07292.00911a.405.405,0,0,0,.04166.00521l.08594.01172.043.00651.0599.00781c.01432.0013.02994.00391.04557.00521.02083.0039.04818.00651.07031.01041.01433.00131.03516.00521.05078.00652.02474.0039.05729.00781.082.01171l.03516.00391c.02214.00391.04557.00651.06771.00912l.043.00651.07161.00911c.01823.0026.03125.00521.05078.00781.026.00261.05209.00651.07813.01042.01432.0026.02995.00391.04557.00651l.056.00781c.01563.0013.03386.00391.04818.00651.02213.00261.04427.00651.0651.00912l.0599.00781c.02474.00391.04948.00781.07422.01042.01432.0026.02994.0052.04427.00651.02213.0039.03515.0052.05729.00781l.04687.00781c.026.00261.0573.00781.08334.01172l.026.0026c.02995.00521.0638.00912.09375.01433a.3489.3489,0,0,1,.03646.00521c.02213.0026.04687.00651.06771.00911.01562.0026.02343.00391.03776.00521.026.00391.056.00911.082.01172.01432.0026.03.00521.04427.00651l.07682.01172c.01432.0026.03125.0039.04557.00651l.05339.00781c.01563.0026.03776.00521.05208.00781.02084.00261.04558.00651.06771.00912.01953.0039.03516.00651.05469.00911.02474.00391.04948.00651.07552.01042.01432.0026.02995.00521.04427.00651.02214.0039.03516.00521.056.00911.01432.00131.03385.00521.04818.00651.02213.00391.04427.00651.0651.01042l.06511.00911c.02213.00391.04687.00651.0677.01042l.043.00651c.02084.00261.043.00651.06381.00912l.04036.00651c.02865.0039.05469.00781.08464.013.01432.0013.02473.0039.04036.00521l.07422.01171.04818.00782c.02083.0026.03385.00521.05468.00781l.04948.00781.05729.00912c.02865.0039.05469.00781.08334.013l.05208.00781.056.00911c.01432.00131.02865.00391.043.00651.01823.00261.03776.00521.05729.00912.02214.0026.03776.00521.0599.00911.02343.00391.04557.00651.069.01042l.0638.01042.04818.00781.05468.00781c.01563.00261.03516.00651.04948.00781.01823.00391.03646.00652.05339.00912.03.00391.056.00911.08463.013l.05729.00912.04948.00781c.01433.0026.03516.00651.04948.00781l.05209.00911c.02213.00391.04557.00782.06771.01042.01953.00391.043.00781.0625.01042.02083.0039.043.00651.0651.01041l.04687.00782c.01823.0026.03776.00651.056.00911l.04818.00781c.02083.00391.03776.00651.0599.00912.02864.00521.04948.00911.07942.013.01693.00391.03646.00651.05469.00911l.04948.00912c.01432.0026.03646.00521.05078.00781l.05469.00912c.01693.0026.03255.0052.05078.00911.02865.00391.05339.00781.08333.013.01693.00261.03907.00651.0573.01042.01432.0013.03385.00521.04817.00781.01823.0026.03776.00651.056.00912l.04688.00781.05989.01041c.02865.00391.05078.00782.07943.013.01823.00261.03776.00652.056.00912l.04818.00911.05208.00782.05078.00911.0586.01042c.02994.00521.04947.00781.07812.013.01823.0026.03776.00651.056.00911.01432.00261.03776.00782.05339.00912l.04557.00911c.01953.00261.03515.00521.05469.00912.01822.0026.03515.00521.05208.00911.02995.00521.05859.01042.08724.01432.01823.00391.03255.00651.05078.00912l.056.01042.03906.00651c.01953.0039.04427.00781.0638.01041l.02344.00521c.04427.00781.07813.013.12109.02083l.03907.00651c.02343.00521.03776.00652.0612.01172l.03385.00521c.02474.00521.043.00781.06771.013.04817.00782.10677.01823.155.02735l.02343.0039.06771.01172.026.00521c.06771.01172.14714.026.21485.03906l.03906.00651c.01823.00391.04167.00782.0612.01172a.358.358,0,0,1,.03646.00651c.01953.00391.043.00781.06119.01042a.20286.20286,0,0,0,.02735.00521l.11979.02213.03776.00781c.01953.00261.04167.00652.0612.01042.01041.00261.02344.00391.03385.00651.01953.00391.04688.00912.06641.01172l.01692.00391c.03907.00651.08073.01432.1198.02213l.04687.00912c.01953.0026.03776.00651.05729.01041l.04167.00782c.01953.0039.04036.00781.05859.01041l.026.00521c.03906.00781.07812.01432.11588.02214l.04557.00781c.01954.00391.03516.00781.05469.01042l.04167.00781c.01953.0039.04166.00781.05989.01172a.358.358,0,0,0,.03646.00651c.03255.00651.069.01432.10156.01953.01433.0039.03256.00651.04688.00911l.0612.01172.03255.00651c.07031.013.14323.02735.21484.04167.01042.0013.02084.00391.03256.00651.02343.00391.04036.00781.0638.01172a.22279.22279,0,0,0,.02864.00521c.07162.01432.14323.02864.21354.043a.301.301,0,0,1,.03646.00651l.06381.013.03125.00521.0664.013.0013.0013c.05209.00911.09766.01823.14974.02864l.02865.00651.0651.013.02995.00521c.07162.01433.14583.02995.21615.04427a.20637.20637,0,0,1,.02995.00521l.0677.01433.02344.0039c.08073.01693.151.03125.23177.04688l.01432.0039c.02344.00391.05469.01042.07813.01563l.00651.0013c.08073.01562.15755.03125.23828.04818l.02083.00521c.02344.0039.04948.00911.07292.01432l.01563.0039c.07682.01563.15625.03256.23307.04818l.01953.00391c.02344.00521.04688.00911.07031.01432a.09761.09761,0,0,1,.02084.00521c.07682.01562.14713.02995.22265.04557l.02865.00651.069.01433.02344.0052c.07552.01563.14323.02995.21875.04688a.26549.26549,0,0,1,.03125.00651c.01953.00391.04687.00911.0651.01432a.13852.13852,0,0,1,.02474.00521c.07682.01563.14453.02995.22005.04688l.02865.00651c.02344.0052.04557.00911.069.01432l.01953.00391c.07552.01692.14974.03255.22526.04947l.02734.00521c.01823.00521.04558.01042.06511.01433l.02864.00651.20834.04557a.3673.3673,0,0,0,.04036.00911c.01953.00391.04167.00912.0612.01433a.28573.28573,0,0,1,.03255.00651c.06641.01432.13932.03125.20573.04557.01432.00391.02734.00651.04167.00911.01953.00521.03906.00912.05859.013l.03255.00782.20443.04557c.01432.00391.02995.00781.04427.01042.01823.0039.03646.00781.056.013.01432.0026.02734.00651.04167.00911.0664.01433.13541.02995.20052.04558l.03906.00911c.01953.00391.03906.00911.05859.013l.03776.00912c.03777.00781.08334.01822.1211.02734l.02213.00521c.01954.0039.04037.00911.0586.013l.03906.00911c.01823.00391.043.01042.0625.01433l.03125.00781c.07031.01562.14063.03255.21094.04818l.03255.00781c.01953.00521.04557.01041.0638.01562l.02474.00521c.07031.01693.14323.03386.21485.05078l.03645.00781c.01823.00521.04037.01042.0599.01433l.03516.00911c.07031.01563.14192.03255.21224.04948l.026.00651.06771.01563.02213.00521c.07031.01692.14844.03645.21875.05338l.02865.00651c.02343.00521.04817.01172.07161.01693l.01042.0026c.07942.01953.15364.03776.23307.056l.01953.00521c.02735.00651.04688.01172.07552.01823l.00391.0013c.07943.01953.15495.03776.23437.05729a.17508.17508,0,0,1,.02474.00651c.02344.00521.04818.01172.07162.01693l.01172.0026c.07942.01954.151.03777.23047.0573l.02213.00521c.02344.00651.04818.01171.07162.01822l.01041.00261c.07552.01823.15365.03776.22787.05729l.02734.00651c.02344.00521.04818.01172.07162.01693l.00781.0026c.07943.01953.155.03906.23437.0586l.01953.0052c.02344.00651.04948.013.07292.01823l.01042.00261c.07942.02083.15234.03906.23047.05859l.02343.00651c.02344.00521.04948.013.07292.01823l.00391.0013c.07942.02084.16406.04167.24349.0625l.00911.00261c.10677.02734.20964.05468.31771.082l.02213.00651c.02344.00521.04948.01172.07292.01823l.00912.0026c.07812.02083.15234.04037.23177.0599l.01953.00521c.10286.02734.20963.056.3112.082a.21581.21581,0,0,0,.02734.00781l.06771.01823.01562.00391c.07813.02083.14844.03906.22657.06119a.09766.09766,0,0,1,.02083.00521c.02344.00521.04948.013.07292.01953l.00651.0013c.07421.01954.15755.043.23177.0625l.02343.00651.07292.01954.0026.0013c.07943.02083.16016.043.23829.0638l.01692.00521c.10677.02864.20834.05729.31511.08594l.01823.0052c.10677.02995.21224.0586.319.08855l.01172.0026c.10546.02995.21093.05859.3164.08854l.01823.00521c.10547.02995.21354.0599.32031.08984l.00651.00261.32292.09114.01042.00261c.10677.03125.21354.0612.319.09245l.01562.0039c.10157.02865.21094.0612.3125.08985l.02084.00651c.10546.03125.20963.06119.3151.09244l.01172.00261c.11068.03255.20963.0612.319.09375l.01042.0039c.10937.03256.21224.0625.32291.09506l.00521.0013c.10547.03255.21354.0638.319.09635l.01563.00391c.10156.03125.21484.0651.3151.09505l.013.00391c.10547.03255.20964.0638.31511.09635l.01692.00521c.10026.03125.21224.0651.3125.09635l.01563.00391c.10547.03255.207.0638.3112.09636l.01692.0052c.10547.03256.207.06511.3125.09766l.01693.00521c.10156.03125.20964.0664.3099.09765l.01822.00521c.10417.03386.20834.06641.3125.10026l.013.00391c.10416.03255.207.0651.31119.099l.01823.00651c.10547.03255.207.0651.3112.099l.01432.0052.3125.10157.013.0039c.10417.03386.20964.069.31381.10287l.013.0039c.07682.026.15495.05209.23177.07683l.00651.0026c.02344.00651.04818.01563.07161.02344l.01953.00651c.10417.03385.20573.06771.3099.10286l.01042.00391c.10416.03385.21224.07031.3164.10547l.00651.0026c.21355.07162.42969.14453.64193.21745l.00912.0026c.10416.03516.21354.07292.3177.10938l.00391.0013c.10417.03516.21354.07292.31771.10938l.01042.0039c.10416.03516.21223.07292.3164.10938l.00261.0013c.10807.03776.20963.07292.3177.11068l.00912.0039c.10417.03646.21094.07422.3151.11068l.00651.0026c.10417.03646.21224.07553.31511.112l.00781.00261c.21094.07552.42838.15364.63932.23047h.0013c.42969.15625.85547.3125,1.28256.47135l.0013.0013c.82943.3086,1.64974.6224,2.47135.94532a149.2639,149.2639,0,0,1,41.97005,25.1302l.00261.00261c.513.43489,1.01823.86849,1.52474,1.3112l.0026.0026c.06381.05469.1211.10547.1849.16146l.00391.0026c.02083.01953.03906.03516.05989.05339l.00391.0026c.16927.14844.33333.293.5013.44141l.0026.0026c.14323.1263.28776.25391.42969.38151l.01042.00912.05469.04948.01041.00911c.0599.05208.11979.10547.17839.15886l.00521.0039c.01692.01563.04166.03776.05989.05339l.00391.00521c.08073.07161.16536.14843.24609.22005l.00391.0026c.14192.12891.28515.25781.42708.38672l.00781.00781c.01823.01563.04167.03646.0586.05209l.0026.0039c.14193.12761.28906.26172.42969.39063l.00391.0039c.01822.01563.043.03907.05989.05469l.00261.00261c.14062.1289.28515.26041.42447.39062l.00912.00781c.01693.01563.04036.03776.05859.05339l.0013.0026c.0586.05339.1237.11328.1823.168l.0013.0013c.16536.15235.32682.30339.48958.457l.0013.00131c.02084.01823.04037.03646.0612.056v.0013c.0612.05729.11458.10677.17578.16406l.01042.01042.05729.05338.0013.00131c.306.28776.60547.57291.90886.86328l.00521.0039c.16145.155.319.306.48046.46224l.00261.00261c.01953.01953.03906.03776.05859.05729.0612.05859.11979.11588.181.17448.07683.07552.15755.15234.23438.22786l.00911.00912c.10156.09765.19792.194.29688.29166h2.15625Z" style="fill:#009c13"/><path d="M298.66667,64v42.66667c0,21.33333,64,21.33333,64,85.33333v85.33333c0,21.33334-21.33334,21.33338-21.33334,42.66669s21.33334,21.33331,21.33334,42.66665S341.33333,384,341.33333,405.33333,362.66667,426.66667,362.66667,448s0,42.66667-85.33334,42.66667H234.66667c-85.33334,0-85.33334-21.33334-85.33334-42.66667s21.33334-21.33333,21.33334-42.66667S149.33333,384,149.33333,362.66667,170.66667,341.33333,170.66667,320s-21.33334-21.33335-21.33334-42.66669V192c0-64,64-64,64-85.33333V64Z" style="fill:#f1ecff"/><rect x="170.66667" y="384" width="85.33333" height="42.66667" rx="21.33331" ry="21.33331" style="fill:#e4dbff"/><circle cx="192" cy="448" r="21.33333" style="fill:#faf8ff"/><path d="M298.66667,106.66667V64h-64v42.66667c0,21.33333,64,21.33333,64,85.33333v85.33333c0,21.33334-21.33334,21.33334-21.33334,42.66667s21.33334,21.33333,21.33334,42.66667S277.33333,384,277.33333,405.33333,298.66667,426.66667,298.66667,448c0,20.38672-.19922,40.72266-74.66667,42.49219,3.45833.082,6.87891.17448,10.66667.17448h42.66666c85.33334,0,85.33334-21.33334,85.33334-42.66667s-21.33334-21.33333-21.33334-42.66667S362.66667,384,362.66667,362.66667,341.33333,341.33333,341.33333,320s21.33334-21.33333,21.33334-42.66667V192C362.66667,128,298.66667,128,298.66667,106.66667Z" style="fill:#d1c2ff"/><rect x="234.66667" y="64" width="64" height="42.66667" rx="21.33331" ry="21.33331" style="fill:#ac93ff"/><circle cx="320" cy="405.33333" r="21.33333" style="fill:#ac93ff"/><rect x="192" y="21.33333" width="128" height="64" rx="21.33333" ry="21.33333" style="fill:#774dff"/><path d="M234.66667,85.33333A21.33333,21.33333,0,0,0,256,64V42.66667a21.33334,21.33334,0,0,0-21.33333-21.33334h64A21.33334,21.33334,0,0,1,320,42.66667V64a21.33333,21.33333,0,0,1-21.33333,21.33333Z" style="fill:#602fff"/><rect x="170.66667" y="213.33333" width="42.66667" height="64" rx="21.33331" ry="21.33331" style="fill:#faf8ff"/><circle cx="192" cy="362.66667" r="21.33333" style="fill:#faf8ff"/><rect x="170.66667" y="298.66667" width="85.33333" height="42.66667" rx="21.33331" ry="21.33331" style="fill:#e4dbff"/><circle cx="320" cy="320" r="21.33333" style="fill:#ac93ff"/><ellipse cx="192" cy="170.66667" rx="23.19854" ry="19.28114" transform="translate(-64.4374 185.86447) rotate(-45.02522)" style="fill:#faf8ff"/><rect x="192" y="42.66667" width="21.33333" height="42.66667" rx="10.66666" ry="10.66666" style="fill:#ac93ff"/><rect x="234.66667" y="42.66667" width="21.33333" height="42.66667" rx="10.66666" ry="10.66666" style="fill:#ac93ff"/><rect x="277.33333" y="42.66667" width="21.33333" height="42.66667" rx="10.66666" ry="10.66666" style="fill:#774dff"/><path d="M256,448a191.16436,191.16436,0,0,1-149.875-71.98958,21.334,21.334,0,1,1,33.29167-26.6875A148.70319,148.70319,0,0,0,256,405.33333c82.34375,0,149.33333-66.98958,149.33333-149.33333A21.33334,21.33334,0,0,1,448,256C448,361.86458,361.86458,448,256,448Z" style="fill:#30bf00"/><path d="M490.66667,287.24945v-.00005a32.75058,32.75058,0,0,0-5.50045-18.16674l-25.33263-37.99894a39.86165,39.86165,0,0,0-33.1669-17.75039h0a39.86166,39.86166,0,0,0-33.16691,17.75039l-25.33263,37.99894a32.75057,32.75057,0,0,0-5.50044,18.16674v.00005A32.75055,32.75055,0,0,0,395.41722,320h62.49889A32.75056,32.75056,0,0,0,490.66667,287.24945Z" style="fill:#30bf00"/><path d="M429.18229,299.2487A10.67166,10.67166,0,0,0,419,306.75065a170.72081,170.72081,0,0,1-298.76367,52.68457,10.66665,10.66665,0,1,0-16.95866,12.94271,191.96274,191.96274,0,0,0,117.46484,72.39193l.002.00032c.05761.01074.1136.02116.17122.03158l.0013.00032c.28516.05274.57422.10547.86.1569l.014.00228c.33951.0612.68815.12305,1.02832.18229l.01171.002.167.029.00162.00032c.23178.04.46029.07943.69239.11849l.00748.00131.16114.02734.01562.0026c.22852.03842.46.07715.6888.11459l.00293.00065c.05469.00879.112.01855.16667.02734l.01335.00228c.05078.00814.10709.01758.1582.02572l.01465.00228c.22917.03743.46094.07454.6901.111l.00651.0013.15983.02507.02214.00358.14974.02376.02116.00325c.22949.03614.457.07129.68685.10645l.01269.00195.16016.02474.01334.002c.05111.00781.109.0166.15984.02408l.013.00228c.17513.02637.34505.05176.52018.0778l.00358.00065.16406.02442.02083.00293.153.02246.0179.0026.15951.02344.01139.00163c.17546.02571.3444.0498.51986.07519l.01074.0013c.05111.00749.10417.015.15527.02214l.02767.00391c.05144.00748.09766.014.14877.02116l.01985.0026.16732.02376h.00033c.1722.02409.349.04851.52116.07227l.01822.0026c.05111.00684.09961.01367.151.02051l.02669.00358.14681.02018.02376.00326.16016.02148.00911.0013c.11752.01563.23047.03093.348.04623l.00912.0013c.05143.00684.1071.01432.15853.02083l.02864.00391c.04427.00586.09571.0127.14.01823l.03418.00456.14355.01888.02474.00293c.17253.02246.34375.04459.5166.0664l.0166.00228.14942.01888.03483.00423.13607.01726.03613.00423.14746.01855.0179.00228c.17318.02149.34213.042.515.06315l.03125.00358c.04427.00554.09472.01172.139.01693l.03743.00456c.04427.00521.08561.01009.12988.01562l.04265.00489.14.01692.027.00293c.11393.01367.22982.02735.34407.04069l.01465.00163.15235.01758.03645.00423.13672.016.03256.00358.14127.01628.03125.00358c.05534.00618.1058.01172.16113.01823l.00586.00065c.11817.01334.23145.026.34961.03906l.015.00163c.05176.00586.10026.01107.152.0166l.03515.00391c.04427.00488.09245.01041.137.015l.03515.00391.14323.01562.02572.00293c.16992.01823.34733.03711.51758.055l.02474.00261c.04459.00488.097.01041.14127.015l.043.00456.13184.01367.03548.00358.14974.0153.01888.002c.11849.01237.23177.02377.35026.03581h.00032l.1696.01693.02474.0026c.0446.00423.09766.00944.14225.014l.03906.00391c.0446.00423.09082.00879.1351.01334l.03613.00326.14486.01432.02506.00228c.11491.01107.23145.02246.34668.0332l.01725.002.15039.014.03874.00358.12956.01237.04622.00424.13021.012.03809.00358c.05208.00456.09863.00912.15071.01367l.01856.00163c.11523.01074.22754.02083.34244.03125l.03907.00326.13118.01171.04557.00424.125.01074.04721.00423.13085.01139.03809.00326c.05566.00488.1071.00944.16309.014l.00488.00065.1748.01465.01921.00162.14844.0127.04622.0039.12337.0101.05013.00423.1211.01009.0511.00423.12924.01042.03841.00293c.11523.00944.22721.01855.34277.02767l.02767.00227c.04492.00326.09408.00717.13867.01075l.05046.0039.12109.00944.05078.00391.12272.00944.0472.00358c.04818.00391.09017.00684.13868.01074l.03027.00228c.112.00814.22884.01693.34082.02539l.04427.00326c.041.00293.084.00586.125.00911l.05371.00391.11621.00814.056.00423.11621.00814.054.0039.14355.01009.02214.00163c.05957.00391.11393.00781.17383.012l.01627.001.15072.01042.05273.00358.11394.00749.06185.00423.11165.00748.057.00358c.041.00293.07975.00554.12109.00814l.04753.00293c.05208.00358.09863.00651.151.00977l.01758.0013.1722.01107.03157.00195c.04492.00261.09082.00554.13574.00846l.05437.00326c.04134.0026.07454.00488.11556.00716l.057.00358.11817.00716.05175.00326.12207.00716.04981.00326c.11263.00651.22689.01334.33919.01985l.03776.002c.041.0026.09212.00553.13347.00781l.04817.0026.12045.00684.056.00325.11849.00651.05144.00261.13346.00748.03613.002.17253.00911c.00651.00033-.0013,0,.00521.00033l.16341.00846.04687.00261.12435.00618.05013.0026.124.00652.04948.00227c.04134.00228.084.00424.12532.00619l.04688.0026c.04882.00228.09082.00423.13964.00684l.03125.0013.17188.00846.02441.001.14193.00684.05827.0026.11263.00521.06087.0026.1097.00521.06153.00261.11653.0052.05339.00228c.04883.00228.09537.00423.14453.00619l.02474.001c.05631.00261.11263.00489.16894.00717l.0459.002c.04134.00195.08138.00358.12272.00521l.06315.0026.10678.00423.06347.00261c.03776.00163.07357.00293.11133.00423l.05957.0026.126.00489.041.0013c.05664.00228.11459.00456.17123.00651l.01464.00065.15625.00586.05046.00163.11719.00423.06347.00228.10938.0039.06217.002.11068.0039.06022.002c.04134.0013.08334.0026.125.00423l.0446.0013.1696.00553.03027.001.13672.00423.06543.002.10254.00292.07356.00228.09864.00293.068.002.10872.00325.06185.00163c.04167.001.08757.00228.12924.00358l.03971.001.16732.00455.04785.00131.12435.00293.05827.00162.11035.00261.06608.00162.10612.00261.06543.0013c.03776.001.07422.002.112.00261l.05761.0013.15332.00358.016.00032c.057.001.11263.00228.1696.00358l.05143.001.11849.00228.0612.0013.111.00195.0638.00131.11068.002.05892.001.12468.00228.04655.00065.17057.00293.0179.00032c.05306.00065.09668.0013.14974.00228l.06185.00065c.03809.00065.07292.0013.11068.00163l.06347.001.10938.00162.06152.00065.11589.00163.05664.00065.1289.0013.04167.00066c.057.00065.11328.0013.17025.00162l.03613.00033c.04557.00065.08985.001.13509.0013l.056.00065.11459.001.06315.00065c.03776.00033.07063.00065.1084.00065l.06542.00065c.03809.00033.07553.00065.11361.00065l.05567.00065c.04915,0,.099.00033.14811.00065l.02246.00033c.057.00033.11426.00065.17122.00065l.04623.00033.124.00065h.0612c.03418.00032.07682.00032.111.00032l.0651.00033c.03418,0,.07162,0,.1058.00032h.06673c.03776,0,.07389,0,.112.00033h.41439l.10123-.00033h.05046c.03255,0,.06576,0,.098-.00032h.04492c.03256,0,.07845,0,.11068-.00033h.03613l.1403-.00065h.03874l.10482-.00065h.0485l.098-.00065.04916-.00033.09961-.00032.04492-.00033.13965-.001.03385-.00033c.03874-.00032.071-.00065.1097-.00065l.05111-.00065.09179-.00065.05437-.00065c.03222,0,.06152-.00033.09407-.00065l.05013-.00065c.09017-.00066.19173-.00163.2819-.00293l.04753-.00033c.03223-.00033.06413-.00065.09635-.0013l.054-.00065c.02572,0,.06283-.00065.08854-.001l.05567-.00065.10807-.0013.0332-.00065c.05176-.00065.08854-.001.14-.002l.04459-.00065.09831-.0013.05176-.00065.0931-.00163.054-.00065c.03255-.00065.06576-.0013.098-.00163l.0433-.001c.05176-.00065.08854-.00131.1403-.00228l.0319-.00065.1123-.002.04851-.001.09114-.00163.057-.001.09505-.00195.04622-.00065c.09017-.002.193-.00423.28321-.00586l.0459-.001c.03222-.001.06412-.00163.09635-.00228l.05566-.0013c.02572-.00032.06511-.0013.09082-.00195l.04948-.001.11491-.00293.028-.00065c.05143-.001.09049-.002.14192-.00325l.03874-.001.10124-.0026.05371-.00131.095-.0026.04785-.001.10417-.00293.03874-.001.1416-.00391.02767-.00065c.03873-.0013.07519-.00228.11393-.00326l.05111-.00162.09244-.00261.05079-.00163c.03222-.00065.06933-.002.10156-.00293l.041-.0013c.08985-.0026.19239-.00586.28256-.00846l.0485-.00163.09831-.00325.04687-.00131c.03223-.0013.0651-.00227.09733-.00325l.04785-.00163.113-.0039.02962-.001c.05143-.00163.08887-.00293.1403-.00488l.03939-.00131.10514-.00358.04492-.00162c.03842-.00163.0612-.00228.09994-.00359l.04655-.00195.111-.0039.0306-.00131c.05143-.00162.09049-.00325.14193-.00521l.0319-.0013c.03841-.0013.07389-.0026.1123-.00423l.0446-.00163.09765-.0039.04883-.002.11035-.00455.029-.001.29166-.012.0293-.00131.11263-.00455.04362-.002.10384-.00455.03939-.00163.11816-.00521.027-.0013.1416-.00619.03321-.00162.1097-.00489.04329-.002.10254-.00488.04492-.002c.0319-.00162.07-.00358.10222-.00488l.04134-.002.14-.00684.027-.0013.11458-.00553.04948-.00228.0905-.00456.05664-.00293.08724-.00423.05436-.00293.27832-.01432.04785-.00261.09505-.00488.05013-.00261.096-.0052.04688-.00261.111-.00586.03125-.00162.139-.00782.04166-.00228.10026-.00553.04948-.00293.09408-.00521.05176-.00293.0983-.00586.04232-.00228.13867-.00813.0306-.00163.113-.00684.04492-.0026.09505-.00586.05208-.00293c.03191-.002.06641-.00423.09831-.00586l.04167-.0026.28418-.01758.03808-.00261.10222-.00618.04948-.00326.0983-.00618.042-.00293c.03841-.00228.085-.00521.12337-.00781l.01855-.00131c.05111-.00325.0931-.00585.14388-.00944l.028-.00162.11328-.00749.04134-.00293.10742-.00716.03679-.00228.11686-.00814.02637-.00163.14518-.01009.01107-.00065c.03808-.0026.09082-.00618.12923-.00911l.041-.00261.10352-.00748.041-.00293.11231-.00782.02962-.00227c.10156-.00717.18555-.013.28744-.02051l.03255-.00261c.03841-.0026.07357-.0052.11165-.00813l.03809-.00261.1084-.00814.0358-.0026.13119-.00977.01074-.001c.05078-.00391.09342-.00716.14421-.01074l.02929-.00228.11394-.00879.03645-.00293.11133-.00847.03386-.0026.12858-.01009.01237-.001.14843-.01172.00717-.00065.13769-.01074.02572-.00228c.03808-.00293.07975-.00618.11784-.00944l.03255-.0026c.03808-.00293.08235-.00651.12044-.00977l.02311-.00195c.10124-.00814.18978-.01563.291-.02409l.02311-.00163.11849-.01009.03678-.00293.11263-.00976.02963-.00228.13118-.0114.013-.001.14453-.01237.02311-.002.11915-.01041.03515-.00326.11-.00944.03776-.00325.11165-.01009.0306-.00261.14323-.01269.00977-.001.13313-.012.0319-.00293.11036-.00977.03873-.00358.1071-.01009.03646-.00326.28515-.02636.02767-.00261.11394-.01074.03906-.00358.10579-.01009.03711-.00358.13151-.0127.00879-.00065.14583-.014.01986-.002c.03776-.00358.08431-.00814.12207-.012l.03386-.00326c.03776-.00358.07194-.00683.1097-.01074l.03711-.00358.11979-.01172.02083-.00228c.05046-.00488.09343-.00911.14388-.01432l.0166-.00163c.03776-.00358.08692-.00879.12468-.01237l.04-.00423.0983-.00977.04785-.00488.10352-.01074.03581-.00358.28483-.0293.02637-.0026c.03776-.00424.07682-.00814.11458-.012l.03808-.0039c.03777-.00424.07292-.00782.11068-.01172l.03028-.00326c.04427-.00456.08984-.00944.13378-.01432l.00847-.00065.14485-.01563.02377-.0026.11328-.012.04525-.00488.10123-.01107.03972-.00423.11556-.01269.02409-.00261.1442-.016.00944-.001.13086-.01433.03581-.00423c.03776-.00391.071-.00781.10872-.012l.03418-.00391.11361-.01269.0306-.00326c.0944-.01074.18717-.02116.28125-.0319l.03841-.00456.10514-.012.03939-.00456c.03776-.00423.069-.00781.10645-.01237l.03483-.00391.13574-.01595.00358-.00032.14551-.01693.02083-.0026c.03776-.00423.08529-.01009.12305-.01433l.02734-.00325.11589-.014.0319-.00358c.04394-.00521.08528-.01009.12923-.01562l.01009-.001.14779-.0179.00293-.00033c.05013-.00619.09049-.01107.14062-.01693l.02279-.00293c.03776-.00455.07877-.00944.11653-.01432l.03483-.00423.1198-.01465.01985-.00228.292-.03613.01041-.0013.12891-.01628.0306-.00391c.03776-.00455.07845-.00976.11621-.01464l.02637-.00326.1289-.01628.01465-.002c.05013-.00618.09408-.012.14388-.01823l.01693-.00228c.03743-.00488.08561-.01106.123-.01562l.03288-.00423c.03744-.00489.07617-.01009.11361-.01465l.03027-.00391.12272-.01595.01856-.0026c.09993-.013.1875-.02442.28743-.03776l.02572-.00326.11816-.01562.0267-.00358.12044-.016.02474-.00326c.09961-.01335.18717-.02506.28678-.03874l.01823-.00228.12435-.01692.02767-.00391c.03743-.00488.08008-.01074.11751-.01595l.02572-.00358c.09993-.01367.18945-.02572.28906-.03971l.00716-.001c.04362-.00586.08952-.01237.13314-.01855l.02637-.00359.11556-.01595.03255-.00455.123-.01726.016-.00227c.09961-.014.1888-.0267.28841-.041l.02213-.00293.11687-.01693.03255-.00455.12532-.01791.01237-.002.29167-.042.01367-.002.12533-.01855.0306-.00423.11784-.01758.02246-.00326.28873-.04264.00879-.0013.13086-.01953.02767-.00423.11751-.01758.027-.00391.12923-.01953.01042-.00163c.0931-.014.19173-.029.28483-.04329l.03223-.00488.111-.01693.03092-.00488c.03711-.00586.08659-.01335.1237-.01888l.0153-.00261c.09929-.0153.1888-.0293.28809-.0446l.01823-.00293.12467-.01953.02442-.0039c.03711-.00554.08821-.01367.12565-.01953l.01465-.00228c.09928-.01563.1914-.03028.29036-.04623l.01042-.00162.13086-.02084.02246-.00358.1263-.02018.01628-.0026c.14843-.02409.28776-.04655.43619-.07064l.00814-.0013.13281-.02181.01888-.00326.13672-.02246.00391-.00065c.14844-.02442.29-.04785.43848-.07292l.01237-.00195.14062-.02344.0013-.00032c.14811-.02507.29395-.04948.44206-.07487l.00488-.001c.04948-.00814.0931-.01563.14258-.02409l.00456-.001c.14811-.02539.29264-.05013.44043-.07584l.00521-.001c.04915-.00846.08886-.01562.13834-.02409l.01172-.002.13835-.02441.00586-.001c.09863-.01725.19531-.03418.29362-.05176h.00065l.13867-.02474.0192-.00325c.03679-.00651.08985-.01595.12663-.02279L289.99284,445c.14778-.02637.28613-.05111.43359-.0778l.00944-.00163.13477-.02474.01237-.00195.43587-.07975c.00488-.001-.00033,0,.00488-.001l.13575-.02506.01595-.00293c.19661-.03646.37955-.07064.57584-.10775l.013-.00228c.04916-.00944.09082-.01725.14-.02637l.00032-.00032c.14714-.02767.28809-.05469.43522-.08268l.015-.00293.13216-.0254.01074-.00195c.14714-.02832.28711-.05566.43425-.084l.00716-.00163c.04883-.00944.08724-.01693.13607-.02669l.01106-.002c.04916-.00976.09213-.0179.141-.02767l.001-.00032.29134-.05729.00749-.00163c.04883-.00944.08561-.01693.13444-.02669l.015-.00293.13412-.0267.00716-.0013c.14648-.02929.28776-.05794.43457-.08756l.00716-.0013c.04883-.00977.08691-.01758.13574-.02767l.0114-.00228c.14648-.02962.28808-.0586.43424-.08854l.00065-.00033c.04883-.00977.0905-.01855.13932-.02865l.013-.0026c.195-.04.3802-.07878.57519-.11947l.00846-.002c.195-.04069.38379-.08073.57845-.12207l.00359-.00065.1429-.0306.00163-.00032c.195-.04167.388-.08334.58268-.12533l.001-.00033c.4375-.09505.873-.19108,1.30957-.28873l.00162-.00033c.194-.04362.3864-.08724.58008-.13118l.00163-.00033c.19368-.04427.38411-.08789.5778-.13249l.00553-.0013a192.14312,192.14312,0,0,0,112.709-75.23079c.00293-.00391-.00163.00228.0013-.00163.1123-.15625.221-.30859.333-.46517l.00488-.00716c.11165-.15658.21875-.307.33008-.46387l.00488-.00716.07943-.112.00195-.0026c.08333-.11784.16439-.23275.2474-.35091l.0039-.00521.07813-.111.00521-.00717.07714-.11035.00456-.00586c.055-.07877.10775-.15364.16276-.23274l.00586-.00782.07259-.10416.01237-.01758.06836-.09831.012-.0166.15918-.22884.00781-.0114.069-.09928.0179-.02571c.02084-.02963.03841-.05534.05892-.085l.02083-.02994.06641-.096.00977-.014.07942-.11491.00326-.00488c.02409-.03451.05013-.07227.07389-.10677l.0153-.02214.06185-.08952.01986-.029.0638-.09277.01172-.01693.15527-.22623.01921-.02833.054-.07845.02767-.04036.05306-.0778.02116-.03092.15235-.22331.0166-.02442.05664-.08333.028-.041c.01335-.02019.03516-.05209.04883-.07194l.026-.03874.05078-.07455.026-.03873c.02376-.03483.04752-.06966.071-.10482l.02669-.03906.0459-.06771.03353-.04981.04329-.06445.0306-.04492.0459-.06836.02832-.042.06152-.09147.02735-.04037.05631-.08431.0293-.04329.04525-.06771.029-.043.04785-.07161.027-.04069.06282-.09375.00977-.01433.07194-.10807.02767-.04134.04785-.07194.02832-.04232.04525-.06836.0293-.04427c.01692-.02506.03157-.04753.04817-.07259l.026-.03906.06967-.10515.02734-.041.04557-.069.03028-.0459.04492-.06771.03027-.04557.04362-.06641.02962-.04492.05013-.07585.04395-.06673.0485-.07357.02995-.04589.04167-.06381.03255-.04948.04264-.06477.03027-.04623.05339-.0817.0179-.02735.07064-.10807.02735-.042.04427-.06771.0332-.05111.03874-.05957.03352-.05143.03842-.05892.03515-.05436.06543-.10059.03353-.05176.03776-.05794.03483-.05436.03776-.05827.03548-.055.03288-.05078.04-.06153.02637-.041c.02376-.03711.0498-.0778.07389-.11459l.03451-.054.03906-.06055.02962-.04622.04264-.06641.02507-.03939.0459-.07129.02246-.03515.06966-.10873.03906-.06119.03939-.06153.03158-.04915.04-.06315.02832-.0446.04166-.0651.02865-.04525.14713-.23112.026-.04167.041-.06412.028-.0446.04394-.06966.02181-.03418c.01563-.02474.03125-.04981.0472-.07455l.00944-.0153c.03418-.05371.069-.10937.10287-.16308l.0166-.026.04655-.07455.02051-.03222.04654-.07422.02247-.03548.04589-.07325.01791-.02864c.05469-.08692.10709-.1709.16146-.25814l.01464-.02311.05111-.082.016-.02572.0485-.07747.01856-.03028.16862-.27083.00488-.00814c.01823-.0293.03255-.05208.05046-.08138l.01953-.03157.04752-.0765.01563-.02572c.07747-.12467.15169-.24511.22852-.37011l.013-.02149.0498-.08073.0166-.027.05111-.083.00553-.00912c.05632-.0918.11784-.19271.17416-.2845l.00748-.01237.05567-.09082.00716-.01205.057-.0931c.00292-.00521-.00033.00065.0026-.00456.0791-.12988.15723-.25813.236-.38834l.0114-.01856.05371-.08886.00683-.0114c.07617-.12565.15593-.25813.23177-.38411l.01009-.0166.05176-.08627.01335-.02181c.07584-.1263.1543-.25748.22982-.38378l.00586-.00944.054-.09082.00977-.01628.054-.09017.00456-.00781c.0804-.13477.1543-.25944.23438-.39453l.00488-.00814a190.93134,190.93134,0,0,0,18.08073-40.66309,10.675,10.675,0,0,0-10.18848-13.83691Z" style="fill:#009c13"/><path d="M426.66667,213.33333h-.099l-.05274.00033h-.02929l-.04688.00032-.03125.00033-.04394.00033h-.03418l-.042.00065-.0345.00032-.04036.00033-.03777.00032-.03645.00065-.042.00066-.03027.00032-.04883.00065-.02343.00033-.054.001-.01595.00033-.06283.0013h-.00455q-.18165.00392-.36329.00912h-.00325q-.21632.00634-.432.0153a10.47721,10.47721,0,0,0-9.917,10.80338,10.85822,10.85822,0,0,0,10.81869,10.50684c.05306,0,.10677-.00065.15983-.00131l.5472-.00813h0a18.49129,18.49129,0,0,1,15.41666,8.25065l25.33269,37.999a11.41744,11.41744,0,0,1-9.5,17.75033H430.90527a10.66667,10.66667,0,0,0,0,21.33333H457.916a32.75071,32.75071,0,0,0,27.25032-50.91732h0l-.00032-.00032.00032.00032-.0026-.0039h0l-.001-.00131h0l-.001-.00162h0c-.04427-.06608-.40169-.60222-1.0013-1.50163l-.00781-.01205-.02279-.03418-.01009-.01529-.042-.06283-.03646-.05469-2.83333-4.25h0c-1.1875-1.78092-2.57292-3.859-4.05729-6.08561h0c-1.484-2.22656-3.06739-4.60156-4.65072-6.97624h0l-4.651-6.97656h0c-1.48438-2.22656-2.86979-4.30436-4.057-6.08561h0l-2.86979-4.30469h0l-1.08854-1.63281h0a39.8616,39.8616,0,0,0-33.167-17.75033Z" style="fill:#009c13"/><path d="M394.65625,298.66667a10.66566,10.66566,0,0,1-9.53125-15.4375l21.33333-42.66667a10.66791,10.66791,0,0,1,19.08334,9.54167l-21.33334,42.66666A10.66775,10.66775,0,0,1,394.65625,298.66667Z" style="fill:#8ae963"/><path d="M149.33333,267.41722v0a32.75053,32.75053,0,0,1-5.50044,18.16674l-25.33263,37.99894a39.86163,39.86163,0,0,1-33.16691,17.75039h0a39.86163,39.86163,0,0,1-33.1669-17.75039L26.83378,285.584a32.75054,32.75054,0,0,1-5.50045-18.16674v0a32.75056,32.75056,0,0,1,32.75056-32.75055h62.49889A32.75055,32.75055,0,0,1,149.33333,267.41722Z" style="fill:#30bf00"/><path d="M116.58268,234.66667H95.24935a10.66667,10.66667,0,1,0,0,21.33333h21.33333a11.41743,11.41743,0,0,1,9.5,17.75033l-25.333,37.99934a18.53314,18.53314,0,0,1-17.60644,8.12077,10.66666,10.66666,0,0,0-2.52572,21.18327c.126.0153.251.0293.377.0433l.02376.0026.05176.00553.02669.00293.0472.00489.0319.00325.0433.00456.03483.00358.03808.00391.03906.0039.03614.00358.03906.00391.03516.00358.03971.00391.03548.00325.04134.00391.03093.00325.04459.00391.0306.00293.04395.0039.03092.00293.04362.00391.03125.00293.04427.00391.02865.00227.04655.00424.02734.00228.04753.0039.026.00228.04915.00391.02149.00162.05469.00456.00651.00065c.11881.00944.23795.01823.35677.02669l.00455.00033.06185.00423.01335.001.05566.00391.01986.0013.05371.00325.02083.00163.05274.00326.02246.0013.05143.00325.02409.00163.04948.00293.026.00163.04883.0026.026.00163.0485.0026.0267.00163.04882.00261.026.00162.04817.00228.02767.00163.0485.00228.02507.0013.04915.0026.0267.00131.04915.00227.026.001.04785.00228.02995.0013.04655.002.02214.001.05306.00228.01562.00065c.0612.00228.12272.00488.18425.00684l.02343.001.04395.00163.03223.001.04427.0013.03059.001.042.0013.03515.0013.03874.001.03678.001.03874.001.03809.0013.03743.00065.03809.001.03743.001.03939.001.03613.00065.03972.001.03646.00065.04036.00065.03548.00065.04.00065.03581.00066.04232.00065.0332.00032.04264.00065.03386.00033.04329.00032.0332.00033.04232.00065h.03386l.04427.00033.0319.00032.043.00033h.03385l.0446.00032h.10709a39.86163,39.86163,0,0,0,33.167-17.75032s19.2985-28.94759,24.20768-36.31153l.03646-.05468.042-.06283.01009-.0153.02279-.03418.00781-.012c.59961-.89942.957-1.43555,1.0013-1.50163h0l.001-.00163h0l.001-.0013h0l.00228-.00358.00033-.00033h0a32.75071,32.75071,0,0,0-27.25033-50.91731Z" style="fill:#009c13"/><path d="M74.67708,320a10.66777,10.66777,0,0,1-9.55208-5.89583L43.79167,271.4375A10.66791,10.66791,0,1,1,62.875,261.89583L84.20833,304.5625A10.66566,10.66566,0,0,1,74.67708,320Z" style="fill:#8ae963"/><path d="M85.75521,243.91536A10.66662,10.66662,0,0,0,95.651,255.30208c.25261.01823.50521.026.75651.026a10.6666,10.6666,0,0,0,10.6263-9.88932c3.23177-46.27864,27.77214-86.45573,63.63282-111.5651V108.55208C123.21094,136.16016,89.82422,185.85547,85.75521,243.91536Z" style="fill:#009c13"/><path d="M413.14062,189.3112a170.06542,170.06542,0,0,0-71.80729-80.6849v25.405c3.78125,2.651,7.73177,5.08333,11.24479,8.0651l.00261.00261c.513.43489,1.01823.86849,1.52474,1.3112l.0026.0026c.06381.05469.1211.10547.1849.16146l.00391.0026c.02083.01953.03906.03516.05989.05339l.00391.0026c.16927.14844.33333.293.5013.44141l.0026.0026c.14323.1263.28776.25391.42969.38151l.01042.00912.05469.04948.01041.00911c.0599.05208.11979.10547.17839.15886l.00521.0039c.01692.01563.04166.03776.05989.05339l.00391.00521c.08073.07161.16536.14843.24609.22005l.00391.0026c.14192.12891.28515.25781.42708.38672l.00781.00781c.01823.01563.04167.03646.0586.05209l.0026.0039c.14193.12761.28906.26172.42969.39063l.00391.0039c.01822.01563.043.03907.05989.05469l.00261.00261c.14062.1289.28515.26041.42447.39062l.00912.00781c.01693.01563.04036.03776.05859.05339l.0013.0026c.0586.05339.1237.11328.1823.168l.0013.0013c.16536.15235.32682.30339.48958.457l.0013.00131c.02084.01823.04037.03646.0612.056v.0013c.0612.05729.11458.10677.17578.16406l.01042.01042.05729.05338.0013.00131c.306.28776.60547.57291.90886.86328l.00521.0039c.16145.155.319.306.48046.46224l.00261.00261c.01953.01953.03906.03776.05859.05729.0612.05859.11979.11588.181.17448.07683.07552.15755.15234.23438.22786l.00911.00912c.16146.15625.31511.30729.474.46484l.00391.0026c.16015.15756.3138.3086.47265.46615l.00521.00651c.31511.3125.63021.6276.94141.94141l.00781.00781c.15755.16016.3112.3151.46745.47526h.0013l.46224.474.01042.01041c.01953.02084.03515.03516.05468.056.05469.0573.11459.11849.16927.17448l.00912.00912c.01562.01693.03776.03906.05338.056l.00391.0039c.05469.0573.10938.11329.16536.17058l.01172.013c.01954.02083.03386.03385.05339.05469l.0013.0013c.05469.05729.10938.11328.16406.17057l.01433.01563c.07161.07421.14583.151.21614.22526l.01823.01953c.01563.01692.03255.03385.04818.05078l.00521.00521c.056.05729.10937.11458.16406.17187l.01042.01042.21875.23047.01432.01562c.01693.01693.03385.03516.04948.05209l.00651.00781c.05469.05729.10937.11458.16276.17187l.00781.00912c.07031.07422.14714.155.21745.23047l.01823.01953c.01562.01692.03125.03255.04687.04948l.00912.00911.15625.168.01432.01562c.07422.07813.14583.15495.21875.23438l.00781.00911c.07032.07422.14584.15625.21615.23178l.01562.01692c.069.07552.14063.151.20964.22657.00651.00781.013.01562.02083.02343l.04558.04948.0052.00521c.05339.05729.10678.11589.16016.17448l.01172.013c.01562.01693.03516.03776.05078.056h.0013c.05339.05859.10808.11849.16276.17708l.013.01563c.01563.01692.03386.03646.04948.05469h.00131c.056.0625.11067.12109.16666.18359l.00391.00391c.07161.07942.14323.15755.21484.237l.01693.01954.04687.05078.00651.00781c.03516.03776.07292.07943.10678.11849.01562.01693.03125.03516.04687.05208l.01823.01953c.01562.01693.03125.03516.04687.05209l.00391.0039c.05208.0586.10287.11459.15625.17448l.01823.02084.04427.04817.01432.01563c.02735.03125.0573.0638.08464.095l.01823.02083c.01562.01693.02474.02735.04036.04558l.02344.02474c.01563.01822.02865.03255.04427.04947l.00912.01042c.02734.03125.05468.0625.08333.09375l.02344.02735c.01562.01692.02343.02473.03776.043l.02864.02995c.01563.01823.02344.02735.03907.04427l.013.01563c.03125.03515.05989.0664.09114.10156l.01172.01432c.01563.01823.02734.03125.043.04818.00651.00781.013.01563.02083.02344.04948.056.10157.11588.151.17187l.00651.00651c.01563.01693.02865.03256.043.04948.01042.01042.01433.01563.02344.026.01563.01823.026.02865.04167.04688l.01172.01432c.03125.03386.05859.06641.08984.10156l.01432.01563c.01433.01693.026.03125.04167.04818l.01953.02213c.01563.01823.03.03516.04557.05209v.0013c.03386.03776.07162.07942.10547.11849l.00651.00781.043.04948.026.02864c.01433.01823.02214.026.03776.04428l.01563.01822c.03385.03907.0612.07032.095.10808l.00261.0039c.01562.01823.03125.03646.04687.05339l.01563.01823c.0677.07812.13932.16146.207.23828l.01172.01432c.0677.07683.138.16016.20572.23828l.01433.01693c.04948.056.09765.11328.14713.17057l.01172.01433.04037.04557c.00911.01172.01823.02213.02734.03255l.03906.04557.00521.00521c.03.03516.0625.07422.09245.10938a.10477.10477,0,0,1,.01562.01823c.01563.01692.02474.02864.04037.04687l.02213.026c.04818.056.09506.11068.14323.168l.01042.01172.043.05078.02213.026c.01433.01693.026.03125.04167.04818l.0026.00391c.02995.03646.06511.07682.09506.112l.01432.01692c.01432.01693.02734.03125.04167.04948a.27537.27537,0,0,1,.01823.02214c.04557.05338.09375.11068.13932.16406l.01823.02214.03646.043c.01171.01432.01953.02343.03125.03645l.03385.04037.01953.02344c.02474.02864.05339.0638.07682.09244a.25922.25922,0,0,1,.01823.02084c.01172.01432.02735.03125.03907.04557l.02343.02995c.04558.05338.09375.11067.13933.16536l.01171.01433.043.05078.02084.026c.04557.05338.09245.11067.13672.16406a.19465.19465,0,0,1,.01562.01823l.04037.04818c.00651.00781.01562.01953.02343.02734.04427.05469.08854.10677.13282.16146l.01822.02213c.013.01433.026.03125.03777.04558l.02734.03255c.04557.05469.09114.10937.13542.16406l.013.01563.04036.04948c.00781.00911.01432.01822.02214.026.04427.05338.09244.11328.13672.168l.01432.01562.04036.04948.02474.03.03646.04557.00781.00912.08594.10416.01823.02344.03906.04818.02214.026c.04166.05078.08594.10547.1263.15625l.02734.03255.03256.04037.03255.04036c.00911.01172.02213.02734.03125.03776.01172.01432.02344.03.03515.043.01693.02213.03516.04427.05339.06641.00781.01041.01823.02343.02734.03385l.03256.04036c.00911.01172.01953.02474.02864.03516.04427.05469.08854.10938.13151.16406l.013.01563c.01172.01562.02995.03776.04167.05208l.02213.026c.043.05469.08594.10808.13021.16276l.01953.02474.03646.04558.02474.03125c.04167.05078.08333.10416.125.15494.00781.01172.01693.02084.02474.03256l.03386.04166.02994.03776c.04427.05469.08073.10157.125.15625l.01953.02474.03776.04688.02344.03c.043.05468.08464.10677.12761.16276l.01953.02213c.01041.01563.02734.03516.03906.05078l.02083.026c.043.056.08594.10938.12891.16407l.01953.02474c.01172.01432.02735.03515.03906.04948l.01693.02213c.04688.05859.08984.11328.13542.17188l.01432.01823c.01172.01562.02734.03385.03906.04947l.026.03386c.043.05469.08464.10807.12761.16406a.09805.09805,0,0,1,.01432.01823l.04037.04948a.21554.21554,0,0,0,.02083.02734c.04036.05209.08594.11068.125.16146.00651.00912.01693.02083.02344.02865.01041.01562.02343.03255.03515.04687.00912.01042.01953.02474.02735.03516.01172.01562.02083.026.03255.04167l.043.05468c.01432.01823.03.04037.04427.0586.00651.00781.01823.02213.02474.03125l.03255.043.026.03386c.02084.026.04427.056.0638.082l.02344.03125.03125.03906c.01042.01433.01953.026.02995.03907l.02865.03776.03645.04817c.00912.01042.01693.02084.026.03255l.02734.03646c.01953.026.04167.05339.0612.07943l.02213.03c.01172.01432.02214.02734.03373.043.01054.013.01836.02474.02877.03906l.04558.05729c.01171.01693.02473.03386.03776.05078.01171.01563.02213.02865.03385.043.00781.01172.01693.02344.02474.03386l.03385.04427.02865.03776.05729.07552.02474.03255c.01172.01562.02474.03255.03646.04687a.25375.25375,0,0,0,.02213.03c.01172.01433.02344.03125.03516.04688l.02214.02864c.02864.03776.05729.07552.08463.112l.00261.00261c.01041.01562.026.03515.03776.04948l.01953.02734c.01172.01432.02474.03255.03515.04687l.026.03386c.04166.056.082.10937.12369.16536l.01693.02084c.01042.01562.02734.03646.03776.05078l.01823.02474c.04427.05859.08854.11849.13411.17838l.00782.01042c.01432.01823.02995.04036.04427.05859l.013.01823c.04427.0599.08724.11719.13151.17709l.01562.01953.03776.05208.01823.02344c.02735.03776.056.07552.08334.112l.00521.00781c.01171.01432.026.03385.03645.04948l.02084.02734c.01172.01563.02474.03255.03515.04818a.3225.3225,0,0,1,.02474.03385c.04167.056.082.10938.1237.16667a.20556.20556,0,0,0,.01563.01953c.013.01953.02213.03255.03645.05078l.02214.03c.02734.03776.04818.0651.07552.10287l.00911.01171.03907.05339.01692.02213c.013.01954.02344.03386.03777.05209l.01953.02734c.03125.04167.05338.07292.08463.11459v.0013c.01432.01823.02735.03646.04167.056l.01432.01953c.013.01823.026.03646.04037.05469l.01171.01692c.04167.056.08724.11979.12891.17709l.01953.02734c.01042.01432.02344.03125.03386.04688.00911.01041.01823.02473.026.03515.03906.05339.08073.112.11979.16406a.27787.27787,0,0,0,.01693.02474l.03515.04818c.00912.01172.01433.02083.02344.03125.02083.03125.04557.0651.06771.09505l.01562.02084c.01042.01562.026.03645.03646.05078l.01823.026c.01432.01823.02344.03125.03646.05078.00781.01172.013.01693.02083.02865.02474.03385.04948.069.07422.10286l.00912.013c.01041.01563.02734.03776.03776.05339l.01823.02474c.01432.01823.02213.03125.03645.04948.00521.00911.013.01953.01954.02864.02213.02995.04427.0612.0651.09115l.02083.02864c.01042.01563.01953.02735.03125.043.00912.01432.01693.02344.02735.03776l.02864.04167.03125.043c.02214.03125.03907.05468.0599.08463a.124.124,0,0,0,.01562.02084c.01042.01562.026.03906.03776.05338a.31467.31467,0,0,0,.01823.026c.013.01823.02084.03.03386.04948.00911.01172.01562.01953.02343.03125.02084.03125.03907.056.0612.08724a.24556.24556,0,0,1,.02084.03c.01171.01562.02213.03125.03385.04688.00781.01041.01432.02083.02214.03255.01171.01432.02213.02995.03255.04557l.02864.03906c.01823.02735.03516.05078.05339.07683.00651.00911.01693.02473.02344.03255.01041.01562.02474.03515.03515.05078.00781.01042.013.01693.02084.02864.013.01954.01953.02865.03385.04818a.20794.20794,0,0,0,.01953.02735c.026.03906.04948.07031.07552.10937l.00781.00912.03516.05208c.00781.01042.01432.01823.02214.02995.01041.01562.02083.03125.03255.04687.00911.01432.01823.026.02864.04037.01823.02734.03646.05338.05469.07942.00651.00912.01432.01953.01953.02865.01433.01953.02344.03255.03646.05208l.01953.02735c.013.01953.02084.02994.03516.04948l.01693.026c.02474.03515.05208.07291.07552.10807l.00911.01172c.013.01953.02474.03776.03776.056l.01432.02083c.01433.01953.026.03646.03907.056.00521.00781.01041.01432.01562.02344.02474.03385.04688.0664.07031.10156l.01433.02083c.01432.01954.02213.02995.03515.04948l.02084.03125c.01432.01953.01953.02865.03385.04818.00781.01042.01172.01693.01953.02865.02214.03125.04427.0638.06511.09375l.01823.02734.03125.04557.02474.03646.02994.043.02735.03906c.02083.03125.04166.0625.0638.09245l.01172.01823.03646.05339.01953.02734.03255.04948c.00781.01172.013.01953.02214.03125.02083.03125.04166.0625.0638.09375l.01692.02474.03516.05208.01693.02474.03646.05469.01432.01953c.02864.043.05208.07682.08073.11979l.0026.00391.04167.0612.01042.01562.04166.0612.0013.0013c.04427.06641.08855.13151.13282.19792l.01562.02213.03516.05339.01823.02734c.02474.03516.04817.07162.07161.10547l.00912.01432.03776.056.01692.02344.03516.05339a.166.166,0,0,0,.01693.02473l.07161.10808.00912.01432.03906.05859.013.01823.03776.0573.01172.01692.07682.11589.00912.013c.01171.01953.02343.03646.03645.056l.01693.02474.03516.05208.01693.02734.0651.09766a.16559.16559,0,0,0,.01693.02474l.03255.04948.02213.03385.03.04558c.01042.01562.01693.02474.026.04036.01823.02735.04167.0612.0586.08854l.01562.02214c.013.01953.02214.03515.03516.05469l.01823.02734.03255.04948.02214.03385c.02083.03125.03776.05729.05859.08985l.01953.02864.03255.04948c.00651.01172.013.02084.02084.03255.01041.01563.02213.03256.03125.04818l.02083.03125c.01823.02734.03776.0586.056.08724l.02344.03516.02994.04557.02474.03776.02865.04427.02344.03516c.01953.03255.03385.05338.05468.08594l.02214.03385.02995.04557.02474.03776.02864.04427.02865.04427c.01823.02735.03255.04948.04948.07683l.02083.03255.03386.05078.01822.03c.01042.01562.02214.03515.03256.05078l.01823.02734c.01953.03125.04427.069.0638.10026l.01432.02214c.013.02083.02474.03776.03646.05729l.01432.02083c.01172.01954.02474.03907.03776.0586l.00391.00651c.02734.04427.05078.07943.07812.12239l.01172.01823c.01172.01953.02344.03646.03516.056l.01562.02474c.013.01953.02344.03516.03516.05469l.00911.01432c.02344.03516.04818.07422.07032.10938l.01692.02734.03256.04948c.00651.01172.013.02344.02083.03516l.02995.04557.02734.043c.01693.02864.03386.05338.05078.08073l.01953.02995c.01172.01953.02084.03255.03256.05338.00651.00912.013.01953.01822.02865.01042.01562.02344.03646.03256.05208l.01432.02083c.02214.03646.04167.06771.0651.10287l.01693.02864c.013.01954.02083.03125.03255.05079l.01823.02994c.01042.01563.02344.03516.03255.05209.00652.00781.01172.01823.01823.02734.01953.03125.04167.06641.0612.099l.01563.02474c.013.01953.02213.03515.03515.05469a.16.16,0,0,0,.01563.02474c.00911.01692.02474.04036.03515.056l.00391.00782c.02734.043.05078.082.07813.125l.01041.01562.03516.05729.01562.02474c.01042.01693.02344.03907.03386.05469a.15364.15364,0,0,1,.01432.02474c.02344.03516.04427.069.06641.10547l.013.02083c.01172.01953.02343.03646.03515.05729l.01433.02344c.01041.01563.02474.04037.03515.056l.00651.01172c.02474.03906.04818.07682.07292.11719l.013.02083.03646.0586.013.02083c.00911.01562.02474.04167.03516.05729l.013.02083.06119.10157a.2504.2504,0,0,1,.01954.03125c.01041.01562.02213.03515.03255.05208l.01823.03c.01041.01562.02213.03515.03125.05078l.01172.01953c.02213.03646.043.069.0651.10547l.01823.03125c.01042.01562.02083.03255.02995.04818.00781.01171.01432.02343.02083.03515.01042.01563.01953.03125.02865.04688a.38805.38805,0,0,1,.02343.03906l.0573.09245.013.02213.03515.05729.01433.02344c.01041.01693.02474.04037.03385.05729l.00391.00521c.02474.04037.04948.082.07422.1224l.01562.02474.03125.05338.01693.02735.03385.056.00261.0052c.02474.04037.04947.082.07421.1224l.013.02214c.013.02083.02473.04036.03645.05989l.01172.01953c.01172.01953.02344.03907.03516.0599l.0026.0039c.02474.04037.05209.08594.07552.12631l.013.02213c.01042.01563.02344.03646.03256.05339l.01823.03c.00911.01692.02213.03776.03125.05338l.0039.00651c.02474.04037.05078.08333.07422.1237l.01172.02083c.013.01953.02474.04037.03646.0599l.01172.01953c.03776.0638.07682.12891.11458.19271l.01042.01693c.01171.02083.02474.04427.03776.0638l.00521.01041c.03906.06511.08072.13672.11848.20052l.00912.01563c.01172.02083.02474.04167.03646.0612l.01172.01953c.03776.0651.07161.12239.10937.1875l.01693.02734.03.05209c.00651.00911.013.02213.01823.03125l.03125.05208.00651.01172.069.11849.013.02344c.013.01953.02343.03906.03515.05859l.013.02213c.03516.0612.07162.1224.10678.1836l.01822.03125.03.05208.01563.02865c.035.05989.07422.1276.10937.1875l.01172.01953.03516.0625.00781.01432.11719.20182.00651.013c.01432.02344.02213.03777.03646.0625l.01041.01823c.03776.06511.07552.13151.11328.19662l.00782.01562c.01432.02344.02343.04037.03776.06511l.00651.01041c.03646.06511.07552.13412.11328.19922l.01172.02084c.00911.01692.02474.04427.03385.05989l.01042.01823c.03646.06511.07422.13021.11067.19531l.01042.01954.03646.0638.00651.01041c.03646.06641.07422.13282.112.19922l.013.02344c.00911.01693.02344.04167.03255.05729l.013.02344.10938.19531.00781.01432c.01432.02474.02474.043.03776.06771l.00261.00391c.03906.07031.07682.138.11588.207l.01042.01953c.01041.02084.02213.04167.03385.0625l.00781.013c.03646.06511.07683.13933.11329.20573l.00651.01042c.01432.02474.02474.04557.03906.07031.03906.07031.07943.14323.11719.21354l.00781.01433.03646.0651.00651.01042c.03776.07031.07422.13541.112.20573l.00781.01432c.013.02474.02344.043.03776.06771l.0013.0039c.03906.07032.07813.14323.11589.21355l.00651.01041c.05208.09505.10416.19141.15494.28646l.00652.01042c.05208.095.10026.1875.15234.28255l.01042.02083c.01171.01953.02213.03906.03255.0599l.01041.01953c.03646.0651.07292.13411.10808.20052l.00781.013c.05078.09636.10026.1888.151.28386l.00912.01692c.01041.02084.02343.04427.03515.06511l.00391.00911c.03776.07031.07292.13672.11068.207l.00911.01823c.01042.02083.02474.04557.03516.06641l.0026.0039c.03646.07032.07292.13933.11068.20964l.01041.02083c.01172.02084.02214.04037.03256.0612l.01041.01823.10287.19792.01172.02213c.01041.02084.02213.043.03385.0638l.00391.00912c.03515.0664.07161.13672.10677.20443a.14893.14893,0,0,1,.013.02473c.01172.02084.02083.03907.03125.0599l.00781.01432c.03516.06771.069.13412.10417.20052l.013.02474c.01042.02084.02083.04167.03255.0625l.00651.013c.03386.0664.069.13541.10417.20182a.22489.22489,0,0,0,.013.02474c.01042.02083.01953.03906.03125.05989l.00911.01823c.03386.06641.069.13412.10287.20052l.00911.01823c.04688.09245.09766.19141.14453.28386l.01042.01953.03255.0651.00391.00651.10937.21485.00521.01172c.04948.09635.09766.1927.14714.28906l.00651.01432c.01172.02083.02344.04688.03385.06771l.00391.00781c.03646.07162.07161.14193.10807.21354l.00651.013c.04818.09766.099.19662.14714.29427l.0026.00652c.05078.10026.09766.19531.14844.29687l.0026.00521c.04948.10156.09636.19531.14584.29687l.0052.01042c.04818.09766.09636.19661.14454.29427l.0052.00912c.04948.10156.09506.194.14454.29687l.0039.00781.14584.29948v.00261c.04947.10156.09635.19791.14583.30078l.0039.00781c.04948.10156.09375.194.14193.29557l.00521.01042c.04818.10286.09375.19531.14193.29818l.0039.00781c.04688.09766.09375.19792.14063.29557l.00651.01433c.04557.09765.09114.1927.13672.29166l.00911.01693c.04427.09505.09375.20052.138.29427l.00261.00781c.04817.10287.09244.19792.14062.30078l.00261.00651c.04557.099.09375.20313.13932.30078l.00391.00782c.09505.20573.1875.40755.28125.61328.23437.51172.46875,1.03516.69661,1.54948l.0013.0013c.29818.67448.59375,1.35807.88281,2.03776a10.66706,10.66706,0,0,0,19.63151-8.35156Z" style="fill:#009c13"/></g></svg>